<svg xmlns="http://www.w3.org/2000/svg" width="512" height="512" viewBox="0 0 512 512">
<defs>

<linearGradient id="steel" x1="0" y1="0" x2="1" y2="1">
  <stop offset="0" stop-color="#eef8f4"/>
  <stop offset=".18" stop-color="#a5c7c2"/>
  <stop offset=".52" stop-color="#42636a"/>
  <stop offset=".78" stop-color="#9ed5c8"/>
  <stop offset="1" stop-color="#263a42"/>
</linearGradient>
<linearGradient id="jade" x1="0" y1="0" x2="1" y2="1">
  <stop offset="0" stop-color="#8dffd2"/>
  <stop offset=".42" stop-color="#1ecf9d"/>
  <stop offset="1" stop-color="#075c55"/>
</linearGradient>
<linearGradient id="gold" x1="0" y1="0" x2="1" y2="1">
  <stop offset="0" stop-color="#fff1a3"/>
  <stop offset=".36" stop-color="#e2b64e"/>
  <stop offset="1" stop-color="#7d4d14"/>
</linearGradient>
<filter id="softGlow" x="-80%" y="-80%" width="260%" height="260%">
  <feGaussianBlur stdDeviation="7"/>
</filter>
<filter id="smallGlow" x="-50%" y="-50%" width="200%" height="200%">
  <feGaussianBlur stdDeviation="3"/>
</filter>

<linearGradient id="fanSilk" x1="0" y1="0" x2="0" y2="1">
  <stop offset="0" stop-color="#dbfff4"/>
  <stop offset=".40" stop-color="#65d9d3"/>
  <stop offset="1" stop-color="#123e50"/>
</linearGradient>

</defs>

<g opacity=".18" filter="url(#softGlow)">
  <path d="M98 285 Q255 83 414 281 Q331 363 257 393 Q181 360 98 285Z"
        fill="#5ff4da"/>
</g>
<g transform="rotate(-10 256 256)">
  <path d="M96 279 Q255 72 416 279
           Q355 322 257 378 Q158 322 96 279Z"
        fill="url(#fanSilk)" stroke="#bdf8e9" stroke-width="4"/>
  <path d="M96 279 Q255 72 416 279"
        fill="none" stroke="#ecd078" stroke-width="5"/>
  <path d="M256 371 L115 279 M256 371 L160 216 M256 371 L207 153
           M256 371 L256 129 M256 371 L305 153 M256 371 L352 216 M256 371 L397 279"
        stroke="#173742" stroke-width="7" opacity=".92"/>
  <path d="M256 371 L115 279 M256 371 L160 216 M256 371 L207 153
           M256 371 L256 129 M256 371 L305 153 M256 371 L352 216 M256 371 L397 279"
        stroke="#47cbb4" stroke-width="2" opacity=".68"/>
  <circle cx="256" cy="371" r="18" fill="#102d37" stroke="url(#gold)" stroke-width="5"/>
  <circle cx="256" cy="371" r="7" fill="#78f4cd"/>
  <path d="M256 198 L286 230 L272 265 L301 293 L256 326 L211 293 L240 265 L226 230 Z"
        fill="none" stroke="#7affd2" stroke-width="5" opacity=".9"/>
  <circle cx="256" cy="260" r="14" fill="#57e3bd" opacity=".28" filter="url(#smallGlow)"/>
  <path d="M177 268 Q256 240 335 268" fill="none" stroke="#f7e5a1" stroke-width="3" opacity=".58"/>
</g>
<path d="M104 311 Q150 343 194 327" fill="none" stroke="#a5fff0" stroke-width="5" opacity=".40"/>
<path d="M326 333 Q371 320 409 286" fill="none" stroke="#74e7d5" stroke-width="4" opacity=".38"/>

</svg>
