<svg xmlns="http://www.w3.org/2000/svg" width="512" height="512" viewBox="0 0 512 512">
  <defs>
    <radialGradient id="glow" cx="50%" cy="52%" r="48%">
      <stop offset="0" stop-color="#ffd76a" stop-opacity="0.34"/>
      <stop offset="0.55" stop-color="#38caaa" stop-opacity="0.12"/>
      <stop offset="1" stop-color="#07161a" stop-opacity="0"/>
    </radialGradient>
    <linearGradient id="metal" x1="0" y1="0" x2="1" y2="1">
      <stop offset="0" stop-color="#fff0a1"/>
      <stop offset="0.42" stop-color="#d3a63d"/>
      <stop offset="1" stop-color="#8e641c"/>
    </linearGradient>
    <linearGradient id="jade" x1="0" y1="0" x2="1" y2="1">
      <stop offset="0" stop-color="#73f5d3"/>
      <stop offset="1" stop-color="#13806d"/>
    </linearGradient>
  </defs>
  <circle cx="256" cy="256" r="224" fill="url(#glow)"/>
  <circle cx="256" cy="256" r="185" fill="none" stroke="#c59b35" stroke-width="7" opacity="0.62"/>
  <circle cx="256" cy="256" r="157" fill="none" stroke="#4be0bc" stroke-width="5" opacity="0.46" stroke-dasharray="18 12"/>
  <path d="M139 330 H373 L349 376 H163 Z" fill="#07191c" stroke="url(#metal)" stroke-width="8"/>
  <path d="M178 295 H334 C326 329 303 348 256 348 C209 348 186 329 178 295 Z" fill="#0a2927" stroke="url(#jade)" stroke-width="7"/>
  <path d="M218 297 C223 251 247 229 256 194 C265 229 289 251 294 297 C279 286 270 266 256 248 C242 266 233 286 218 297 Z" fill="url(#jade)" opacity="0.95"/>
  <path d="M256 268 C245 250 244 231 256 209 C268 231 267 250 256 268 Z" fill="#ffe278"/>
  <g transform="rotate(-42 320 191)">
    <rect x="307" y="111" width="26" height="196" rx="12" fill="#7b5420" stroke="#d7ad4c" stroke-width="5"/>
    <rect x="265" y="84" width="110" height="55" rx="13" fill="url(#metal)" stroke="#fff0a3" stroke-width="5"/>
    <path d="M275 96 H365" stroke="#7f5c1d" stroke-width="5" opacity="0.55"/>
  </g>
  <path d="M256 46 l11 17 l-11 17 l-11 -17 z" fill="#f0cc62"/>
  <path d="M466 256 l-17 11 l-17 -11 l17 -11 z" fill="#59dfbf"/>
  <path d="M46 256 l17 -11 l17 11 l-17 11 z" fill="#59dfbf"/>
</svg>
