<svg xmlns="http://www.w3.org/2000/svg" viewBox="0 0 96 96">
  <path d="M23 18c7 13 14 20 25 20s18-7 25-20" fill="none" stroke="#f4cc66" stroke-width="3" stroke-linecap="round"/>
  <circle cx="48" cy="53" r="24" fill="#061e25" stroke="#f4cc66" stroke-width="3"/>
  <path d="M48 34c13 8 17 20 0 37-17-17-13-29 0-37Z" fill="#29bba8" stroke="#8ffbea" stroke-width="2"/>
  <path d="M48 40v24M38 52h20" stroke="#e9fff9" stroke-width="2" opacity=".75"/>
  <circle cx="48" cy="53" r="29" fill="none" stroke="#46ddc7" stroke-width="1.5" opacity=".5"/>
<path d="M33 84 l3 3 -3 3 -3 -3Z" fill="#f4cc66"/><path d="M43 84 l3 3 -3 3 -3 -3Z" fill="#f4cc66"/><path d="M53 84 l3 3 -3 3 -3 -3Z" fill="#f4cc66"/><path d="M63 84 l3 3 -3 3 -3 -3Z" fill="#f4cc66"/></svg>
