<svg xmlns="http://www.w3.org/2000/svg" width="128" height="128" viewBox="0 0 128 128">
<defs>
<linearGradient id="bg" x1="0" y1="0" x2="0" y2="1">
  <stop offset="0" stop-color="#0D252D"/>
  <stop offset="0.5" stop-color="#091A22"/>
  <stop offset="1" stop-color="#061117"/>
</linearGradient>
<linearGradient id="jadeLine" x1="0" y1="0" x2="1" y2="0">
  <stop offset="0" stop-color="#1E8D7E" stop-opacity="0.15"/>
  <stop offset="0.5" stop-color="#45D9BE" stop-opacity="0.95"/>
  <stop offset="1" stop-color="#1E8D7E" stop-opacity="0.15"/>
</linearGradient>
<linearGradient id="goldLine" x1="0" y1="0" x2="1" y2="0">
  <stop offset="0" stop-color="#8B621D" stop-opacity="0.15"/>
  <stop offset="0.5" stop-color="#E8BE58" stop-opacity="0.95"/>
  <stop offset="1" stop-color="#8B621D" stop-opacity="0.15"/>
</linearGradient>
<filter id="softGlow" x="-40%" y="-40%" width="180%" height="180%">
  <feGaussianBlur stdDeviation="3" result="blur"/>
  <feMerge><feMergeNode in="blur"/><feMergeNode in="SourceGraphic"/></feMerge>
</filter>
<filter id="goldGlow" x="-40%" y="-40%" width="180%" height="180%">
  <feGaussianBlur stdDeviation="2.5" result="blur"/>
  <feMerge><feMergeNode in="blur"/><feMergeNode in="SourceGraphic"/></feMerge>
</filter>
</defs>
<circle cx="64" cy="64" r="59" fill="#061117" fill-opacity="0.88" stroke="#47585A" stroke-width="2" opacity="0.5"/>
<circle cx="64" cy="64" r="52" fill="none" stroke="#5B6D6F" stroke-opacity="0.42" stroke-width="1"/>
<path d="M64 2 L73 13 L64 24 L55 13 Z" fill="#091A22" stroke="#E8BE58" stroke-width="1.5" opacity="0.5"/>
<path d="M64 104 L73 115 L64 126 L55 115 Z" fill="#091A22" stroke="#E8BE58" stroke-width="1.5" opacity="0.5"/>
<path d="M2 64 L13 55 L24 64 L13 73 Z" fill="#091A22" stroke="#5B6D6F" stroke-width="1.2" opacity="0.5"/>
<path d="M104 64 L115 55 L126 64 L115 73 Z" fill="#091A22" stroke="#5B6D6F" stroke-width="1.2" opacity="0.5"/>
<path d="M32 22 Q64 8 96 22" fill="none" stroke="url(#goldLine)" stroke-width="1"/>
<path d="M32 106 Q64 120 96 106" fill="none" stroke="url(#jadeLine)" stroke-width="1"/>
<path d="M51 63 V52 A13 13 0 0 1 77 52 V63 M47 63 H81 V88 H47 Z" fill="none" stroke="#738286" stroke-width="5" opacity="0.72"/></svg>